<svg width="56" height="56" viewBox="0 0 56 56" fill="none" xmlns="http://www.w3.org/2000/svg">
    <path fill-rule="evenodd" clip-rule="evenodd" d="M28 14.6667C20.6362 14.6667 14.6667 20.6362 14.6667 28C14.6667 35.3638 20.6362 41.3333 28 41.3333C35.3638 41.3333 41.3334 35.3638 41.3334 28C41.3334 20.6362 35.3638 14.6667 28 14.6667ZM32.774 25.2999C33.1237 24.8725 33.0607 24.2424 32.6333 23.8927C32.2058 23.543 31.5758 23.606 31.2261 24.0334L25.9258 30.5116L24.0405 28.6262C23.6499 28.2357 23.0168 28.2357 22.6262 28.6262C22.2357 29.0168 22.2357 29.6499 22.6262 30.0404L25.2929 32.7071C25.4927 32.9069 25.7677 33.0128 26.0498 32.9988C26.332 32.9847 26.5951 32.8519 26.774 32.6332L32.774 25.2999Z" fill="#34D399"/>
</svg>
