<svg width="56" height="56" viewBox="0 0 56 56" fill="none" xmlns="http://www.w3.org/2000/svg">
    <path fill-rule="evenodd" clip-rule="evenodd" d="M14.6667 28C14.6667 20.6362 20.6362 14.6667 28 14.6667C35.3638 14.6667 41.3334 20.6362 41.3334 28C41.3334 35.3638 35.3638 41.3333 28 41.3333C20.6362 41.3333 14.6667 35.3638 14.6667 28ZM24.7071 23.2929C24.3166 22.9024 23.6834 22.9024 23.2929 23.2929C22.9024 23.6834 22.9024 24.3166 23.2929 24.7071L26.5858 28L23.2929 31.2929C22.9024 31.6834 22.9024 32.3166 23.2929 32.7071C23.6834 33.0976 24.3166 33.0976 24.7071 32.7071L28 29.4142L31.2929 32.7071C31.6834 33.0976 32.3166 33.0976 32.7071 32.7071C33.0977 32.3166 33.0977 31.6834 32.7071 31.2929L29.4142 28L32.7071 24.7071C33.0977 24.3166 33.0977 23.6834 32.7071 23.2929C32.3166 22.9024 31.6834 22.9024 31.2929 23.2929L28 26.5858L24.7071 23.2929Z" fill="#A1A1AA"/>
</svg>
