<svg width="56" height="56" viewBox="0 0 56 56" fill="none" xmlns="http://www.w3.org/2000/svg">
    <path fill-rule="evenodd" clip-rule="evenodd" d="M32.9291 32.3403L34.1355 26.1312C34.4079 24.7298 34.1814 23.6846 33.4629 23.024C32.7668 22.385 31.5851 22.0741 29.8504 22.0741H27.7611L28.3588 18.9978C28.37 18.9405 28.3683 18.8815 28.354 18.8249C28.3397 18.7684 28.3131 18.7157 28.276 18.6706C28.2389 18.6256 28.1923 18.5893 28.1396 18.5644C28.0868 18.5395 28.0292 18.5266 27.9708 18.5266H25.0872C24.8978 18.5266 24.7351 18.661 24.6989 18.8469L23.4175 25.4386C23.3011 24.6969 23.014 24.0593 22.5546 23.5331C21.7088 22.5649 20.3709 22.0741 18.5778 22.0741H12.9887C12.7993 22.0741 12.6366 22.2085 12.6004 22.3941L10.0073 35.7369C9.9847 35.8531 10.015 35.9725 10.0903 36.0637C10.1653 36.1552 10.277 36.2078 10.3956 36.2078H13.3019C13.4913 36.2078 13.6539 36.0734 13.6901 35.8872L14.3174 32.66H16.4808C17.6161 32.66 18.5701 32.5371 19.3148 32.2948C20.0762 32.0471 20.7771 31.6271 21.3947 31.0489C21.8938 30.5904 22.3061 30.0769 22.6235 29.5231L22.1056 32.1889C22.0829 32.3051 22.1132 32.425 22.1885 32.5156C22.2635 32.6071 22.3755 32.6597 22.4938 32.6597H25.3774C25.5668 32.6597 25.7295 32.5253 25.7657 32.3398L27.1888 25.0157H29.1675C30.0107 25.0157 30.2578 25.1836 30.3251 25.2557C30.386 25.3216 30.5125 25.5536 30.3704 26.2851L29.2234 32.1886C29.2124 32.2458 29.2142 32.3048 29.2286 32.3613C29.243 32.4177 29.2697 32.4703 29.3068 32.5153C29.3439 32.5603 29.3904 32.5965 29.4431 32.6214C29.4958 32.6463 29.5534 32.6593 29.6116 32.6594H32.5412C32.6329 32.6596 32.7217 32.6279 32.7925 32.5696C32.8633 32.5114 32.9116 32.4303 32.9291 32.3403V32.3403ZM19.5598 27.21C19.3786 28.1408 19.0375 28.8046 18.5451 29.1831C18.0452 29.5687 17.2455 29.764 16.1682 29.764H14.88L15.8115 24.9707H17.477C18.7004 24.9707 19.1933 25.2322 19.3913 25.4513C19.6657 25.7554 19.7239 26.3639 19.5598 27.21V27.21ZM45.0759 23.5331C44.2303 22.5649 42.8924 22.0741 41.0993 22.0741H35.5102C35.3205 22.0741 35.1581 22.2085 35.1219 22.3941L32.5291 35.7369C32.5062 35.8531 32.5365 35.9725 32.6118 36.0637C32.6871 36.1549 32.7991 36.2078 32.9168 36.2078H35.8234C36.0131 36.2078 36.1754 36.0734 36.2116 35.8872L36.8389 32.66H39.0026C40.1382 32.66 41.0913 32.5371 41.8363 32.2948C42.598 32.0471 43.2989 31.6271 43.9162 31.0489C44.4315 30.5757 44.8553 30.0437 45.1764 29.4693C45.4976 28.8949 45.7279 28.2544 45.8623 27.565C46.1926 25.8648 45.9282 24.5084 45.0759 23.5331V23.5331ZM42.2463 27.21C42.0648 28.1408 41.7237 28.8046 41.2319 29.1831C40.7317 29.5687 39.932 29.764 38.855 29.764H37.5665L38.4977 24.9707H40.1635C41.3869 24.9707 41.8798 25.2322 42.0781 25.4513C42.3519 25.7554 42.4104 26.3639 42.2463 27.21V27.21Z" fill="none"/>
    <path fill-rule="evenodd" clip-rule="evenodd" d="M17.3943 24.5752C18.4983 24.5752 19.2345 24.7791 19.6024 25.1867C19.97 25.5943 20.0577 26.2943 19.8653 27.2857C19.6642 28.3183 19.2771 29.0553 18.7036 29.4971C18.1301 29.9388 17.2572 30.1594 16.0855 30.1594H14.3174L15.4026 24.5752H17.3943ZM10.3126 35.8123H13.2189L13.9086 32.2651H16.3981C17.4966 32.2651 18.4004 32.1496 19.1098 31.9187C19.8192 31.6878 20.4641 31.3011 21.0444 30.7579C21.5314 30.3105 21.9255 29.8164 22.2273 29.2765C22.5287 28.7365 22.7428 28.1409 22.8696 27.4895C23.1772 25.9078 22.9452 24.6758 22.174 23.7935C21.4032 22.9109 20.1765 22.4698 18.4951 22.4698H12.906L10.3126 35.8123V35.8123ZM25.0042 18.9223H27.8879L27.1985 22.4698H29.7678C31.3836 22.4698 32.4991 22.7515 33.1126 23.3153C33.7261 23.8791 33.9099 24.7929 33.6647 26.0561L32.4582 32.2651H29.5287L30.6757 26.3613C30.806 25.6896 30.7583 25.2317 30.5316 24.9873C30.3048 24.7432 29.8222 24.6208 29.0846 24.6208H26.78L25.2945 32.2651H22.4108L25.0042 18.9223ZM40.0808 24.5752C41.1849 24.5752 41.9207 24.7791 42.2889 25.1867C42.6566 25.5943 42.7439 26.2943 42.5516 27.2857C42.351 28.3183 41.964 29.0553 41.3902 29.4971C40.817 29.9388 39.9438 30.1594 38.7726 30.1594H37.0045L38.0894 24.5752H40.0808V24.5752ZM32.9985 35.8123H35.9051L36.5945 32.2651H39.0841C40.1829 32.2651 41.0867 32.1496 41.796 31.9187C42.5054 31.6878 43.1504 31.3011 43.7306 30.7579C44.2177 30.3105 44.6118 29.8164 44.9132 29.2765C45.2147 28.7365 45.4291 28.1409 45.5561 27.4895C45.8635 25.9078 45.6314 24.6758 44.8606 23.7935C44.0892 22.9109 42.8627 22.4698 41.1814 22.4698H35.5922L32.9985 35.8123V35.8123Z" fill="#818CF8"/>
</svg>
