<svg width="56" height="56" viewBox="0 0 56 56" fill="none" xmlns="http://www.w3.org/2000/svg">
    <path d="M19.3567 12.4445H36.5826C37.4208 12.4445 38.2347 12.5781 39.0244 12.8577C40.1663 13.2708 41.1989 14 41.9763 14.9479C42.766 15.8958 43.2883 17.0625 43.4705 18.2778C43.5434 18.7274 43.5556 19.1771 43.5556 19.6267V36.434C43.5556 36.9688 43.5313 37.5156 43.422 38.0382C43.179 39.2413 42.608 40.3715 41.782 41.283C40.9681 42.1945 39.899 42.875 38.745 43.2396C38.0404 43.4583 37.3115 43.5556 36.5705 43.5556C36.2425 43.5556 19.3081 43.5556 19.053 43.5434C17.8139 43.4827 16.587 43.0816 15.5544 42.3889C14.5461 41.7083 13.72 40.7604 13.1855 39.6667C12.7239 38.7309 12.4931 37.6858 12.4931 36.6406V19.3594C12.4688 18.3264 12.6874 17.3056 13.1369 16.382C13.6593 15.2882 14.4732 14.3281 15.4815 13.6476C16.5141 12.9427 17.7289 12.5295 18.968 12.4688C19.0894 12.4445 19.2231 12.4445 19.3567 12.4445Z" fill="url(#paint0_linear_1_6099)"/>
    <path d="M38.6842 37.8924C38.5748 37.7222 38.4534 37.5521 38.3197 37.3941C38.016 37.0295 37.6637 36.7136 37.275 36.4462C36.7891 36.1181 36.2181 35.9115 35.635 35.8872C35.222 35.8629 34.809 35.9358 34.4202 36.0816C34.0315 36.2153 33.6549 36.4097 33.2905 36.6042C32.8653 36.8229 32.4401 37.0417 31.9906 37.224C31.4561 37.4427 30.8973 37.6129 30.3263 37.7344C29.6096 37.8681 28.8807 37.9167 28.164 37.9045C26.8642 37.8802 25.5643 37.6858 24.3252 37.3212C23.2319 36.9931 22.1872 36.5434 21.2032 35.9722C20.3407 35.474 19.5389 34.9028 18.7857 34.2587C18.1662 33.724 17.5952 33.1528 17.0607 32.5452C16.6963 32.1198 16.344 31.6702 16.016 31.2083C15.8823 31.0261 15.7609 30.8316 15.6515 30.6372L12.4445 27.1736V19.3351C12.4445 15.5313 15.5179 12.4445 19.3202 12.4445H25.455L29.9983 17.0625C40.2513 24.0382 36.9349 31.7309 36.9349 31.7309C36.9349 31.7309 39.8504 35.0122 38.6842 37.8924Z" fill="url(#paint1_linear_1_6099)"/>
    <path d="M30.0226 17.0625C40.2755 24.0382 36.9591 31.7309 36.9591 31.7309C36.9591 31.7309 39.8747 35.0243 38.6963 37.9045C38.6963 37.9045 37.4937 35.8872 35.4771 35.8872C33.5334 35.8872 32.3915 37.9045 28.4798 37.9045C19.7697 37.9045 15.6516 30.625 15.6516 30.625C23.4992 35.7899 28.8564 32.1319 28.8564 32.1319C25.3214 30.0781 17.8017 20.2587 17.8017 20.2587C24.3495 25.8368 27.18 27.3073 27.18 27.3073C25.4914 25.9097 20.7537 19.0799 20.7537 19.0799C24.5439 22.9201 32.0756 28.2795 32.0756 28.2795C34.2137 22.349 30.0226 17.0625 30.0226 17.0625Z" fill="#1E2235"/>
    <defs>
        <linearGradient id="paint0_linear_1_6099" x1="30.9448" y1="11.3343" x2="25.0647" y2="44.6687" gradientUnits="userSpaceOnUse">
            <stop stop-color="#FAAE42"/>
            <stop offset="1" stop-color="#EF3E31"/>
        </linearGradient>
        <linearGradient id="paint1_linear_1_6099" x1="28.3112" y1="12.9471" x2="24.0077" y2="37.3441" gradientUnits="userSpaceOnUse">
            <stop stop-color="#E39F3A"/>
            <stop offset="1" stop-color="#D33929"/>
        </linearGradient>
    </defs>
</svg>
